<svg xmlns="http://www.w3.org/2000/svg" xmlns:xlink="http://www.w3.org/1999/xlink" width="500" zoomAndPan="magnify" viewBox="0 0 375 374.999991" height="500" preserveAspectRatio="xMidYMid meet" version="1.0"><defs><g/></defs><g fill="#000000" fill-opacity="1"><g transform="translate(17.382328, 255.609137)"><g><path d="M 116.8125 2.171875 L 113.46875 2.171875 L 27.1875 -105.78125 L 26.390625 -105.78125 L 26.390625 0 L 17.734375 0 L 17.734375 -130.40625 L 32.3125 -130.40625 L 107.359375 -35.65625 L 108.140625 -35.65625 L 108.140625 -130.40625 L 116.8125 -130.40625 Z M 116.8125 2.171875 "/></g></g></g><g fill="#000000" fill-opacity="1"><g transform="translate(238.899392, 255.609137)"><g><path d="M 77.8125 2.359375 C 57.457031 2.359375 40.316406 -3.15625 26.390625 -14.1875 C 12.472656 -25.21875 5.515625 -41.039062 5.515625 -61.65625 C 5.515625 -73.738281 7.8125 -84.503906 12.40625 -93.953125 C 17 -103.410156 23.039062 -110.832031 30.53125 -116.21875 C 45.632812 -127.25 62.578125 -132.765625 81.359375 -132.765625 C 92.253906 -132.765625 103.613281 -130.796875 115.4375 -126.859375 L 113.46875 -113.46875 C 107.289062 -116.09375 102.492188 -118.0625 99.078125 -119.375 C 89.234375 -122.914062 79.320312 -124.6875 69.34375 -124.6875 C 55.550781 -121.539062 44.941406 -114.710938 37.515625 -104.203125 C 30.097656 -93.703125 26.390625 -80.570312 26.390625 -64.8125 C 26.390625 -45.5 31.445312 -30.625 41.5625 -20.1875 C 51.675781 -9.75 65.003906 -4.53125 81.546875 -4.53125 C 98.097656 -4.53125 110.441406 -8.078125 118.578125 -15.171875 L 118.578125 -4.328125 C 107.285156 0.128906 93.695312 2.359375 77.8125 2.359375 Z M 77.8125 2.359375 "/></g></g></g><g fill="#000000" fill-opacity="1"><g transform="translate(155.175171, 211.939768)"><g><path d="M 25.328125 1.3125 C 20.597656 1.3125 16.070312 0.0625 11.75 -2.4375 C 9.519531 -3.71875 7.710938 -5.625 6.328125 -8.15625 C 4.941406 -10.6875 4.25 -13.640625 4.25 -17.015625 C 4.25 -21.472656 5.953125 -25.375 9.359375 -28.71875 C 12.773438 -32.070312 17.960938 -34.320312 24.921875 -35.46875 C 22.359375 -41.207031 21.078125 -46.472656 21.078125 -51.265625 C 21.078125 -54.171875 21.953125 -57.484375 23.703125 -61.203125 C 24.722656 -63.296875 26.445312 -65.050781 28.875 -66.46875 C 31.3125 -67.882812 33.8125 -68.59375 36.375 -68.59375 C 38.945312 -68.59375 41.679688 -68.320312 44.578125 -67.78125 C 47.484375 -67.25 49.679688 -66.644531 51.171875 -65.96875 L 50.15625 -59.578125 C 45.832031 -62.816406 40.492188 -64.4375 34.140625 -64.4375 C 30.898438 -62.34375 29.28125 -58.59375 29.28125 -53.1875 C 29.28125 -47.789062 30.9375 -41.613281 34.25 -34.65625 C 37.5625 -27.695312 42.019531 -21.414062 47.625 -15.8125 C 49.988281 -19.65625 52.421875 -25.53125 54.921875 -33.4375 C 53.160156 -33.4375 51.910156 -33.472656 51.171875 -33.546875 L 51.171875 -36.6875 C 57.992188 -36.882812 63.734375 -37.625 68.390625 -38.90625 L 66.671875 -33.84375 C 65.453125 -33.644531 63.125 -33.476562 59.6875 -33.34375 C 56.976562 -25.09375 53.867188 -18.367188 50.359375 -13.171875 C 58.054688 -6.484375 65.960938 -3.140625 74.078125 -3.140625 L 69.71875 0 C 61.738281 0 53.96875 -2.734375 46.40625 -8.203125 C 40.53125 -1.859375 33.503906 1.3125 25.328125 1.3125 Z M 28.265625 -3.4375 C 34.148438 -3.4375 39.285156 -5.734375 43.671875 -10.328125 C 36.441406 -16.273438 30.664062 -23.570312 26.34375 -32.21875 C 21.75 -30.9375 18.390625 -28.894531 16.265625 -26.09375 C 14.140625 -23.289062 13.078125 -20.265625 13.078125 -17.015625 C 13.078125 -12.359375 14.507812 -8.929688 17.375 -6.734375 C 20.25 -4.535156 23.878906 -3.4375 28.265625 -3.4375 Z M 28.265625 -3.4375 "/></g></g></g></svg>